<svg width="600" height="600" viewBox="0 0 24 24" xmlns="http://www.w3.org/2000/svg">
  <path fill="#FFFFFF" d="M22.62 5.553c-.798.35-1.655.588-2.546.694a4.524 4.524 0 0 0 1.983-2.496 9.037 9.037 0 0 1-2.866 1.095 4.513 4.513 0 0 0-7.705 4.116 12.81 12.81 0 0 1-9.303-4.709 4.513 4.513 0 0 0 1.395 6.017 4.473 4.473 0 0 1-2.043-.567v.057a4.514 4.514 0 0 0 3.616 4.417 4.508 4.508 0 0 1-2.038.077 4.515 4.515 0 0 0 4.217 3.132 9.055 9.055 0 0 1-5.61 1.929c-.365 0-.725-.022-1.082-.066a12.752 12.752 0 0 0 6.907 2.024c8.307 0 12.833-6.876 12.833-12.834 0-.196-.005-.392-.014-.585a9.166 9.166 0 0 0 2.25-2.33z"/>
</svg>
